<?xml version="1.0" encoding="utf-8"?>
<!-- Generator: Adobe Illustrator 25.2.1, SVG Export Plug-In . SVG Version: 6.00 Build 0)  -->
<svg version="1.1" id="Capa_1" xmlns="http://www.w3.org/2000/svg" xmlns:xlink="http://www.w3.org/1999/xlink" x="0px" y="0px"
	 viewBox="0 0 500.4 98.4" style="enable-background:new 0 0 500.4 98.4;" xml:space="preserve">
<style type="text/css">
	.st0{display:none;}
	.st1{fill:#FFFFFF;}
	.st2{fill:#00D80A;}
</style>
<rect x="-221.2" y="-270" class="st0" width="800" height="500"/>
<g>
	<g>
		<g>
			<path class="st1" d="M121.3,78.7c-4.3,0-8-0.6-11-1.8c-3-1.2-5.4-2.7-7.2-4.6c-1.8-1.9-3.2-4-4.1-6.3c-0.9-2.3-1.4-4.5-1.5-6.7
				h11.1c0.1,1.7,0.6,3.4,1.6,4.9c1,1.6,2.4,2.9,4.3,3.9s4.3,1.5,7.1,1.5c3.1,0,5.4-0.6,6.9-1.9c1.5-1.3,2.3-2.9,2.3-5
				c0-2-0.7-3.5-2-4.8c-1.3-1.2-3-2.2-5.2-2.9l-8.1-2.7c-2.6-0.9-5-1.9-7.4-3.2s-4.3-2.9-5.8-5s-2.3-4.7-2.3-8s0.8-6.1,2.5-8.4
				s4-4,7-5.2c3-1.2,6.4-1.8,10.3-1.8c5,0,8.9,0.8,11.7,2.5c2.9,1.7,4.9,3.8,6.3,6.3c1.3,2.5,2.1,5.2,2.4,8h-11.1
				c-0.1-1.3-0.5-2.6-1.1-3.8c-0.6-1.2-1.7-2.2-3-3c-1.4-0.8-3.2-1.1-5.6-1.1c-2.6,0-4.6,0.5-5.8,1.6c-1.3,1.1-1.9,2.5-1.9,4.1
				c0,1.8,0.7,3.3,2,4.4s3.1,2,5.3,2.8l8.1,2.7c2.6,0.9,5.1,1.9,7.4,3.2s4.3,3,5.8,5.1s2.3,4.9,2.3,8.3c0,5.2-1.8,9.3-5.5,12.3
				C133.2,77.2,128,78.7,121.3,78.7z"/>
			<path class="st1" d="M165.2,78.7c-6.8,0-11.9-2-15.5-6.1c-3.5-4-5.3-9.6-5.3-16.5c0-4.7,0.8-8.7,2.4-12c1.6-3.3,3.9-5.9,7-7.7
				s6.8-2.7,11.3-2.7c6.4,0,11.3,1.9,14.7,5.8s5.1,9.5,5.1,17v2.4h-29.2c0.2,3.6,1.2,6.5,2.8,8.5c1.6,2.1,3.9,3.1,6.7,3.1
				c2.2,0,4-0.7,5.4-2c1.4-1.3,2.3-2.9,2.7-4.6h11c-0.4,2.6-1.4,5.1-2.9,7.3s-3.5,4-6.2,5.4S169.2,78.7,165.2,78.7z M155.7,51.6
				h17.9c-0.2-3.2-1-5.8-2.4-7.5c-1.4-1.8-3.5-2.7-6.1-2.7s-4.7,0.8-6.3,2.5C157,45.6,156.1,48.2,155.7,51.6z"/>
			<path class="st1" d="M206.8,78.7c-6.8,0-11.9-2-15.5-6.1c-3.5-4-5.3-9.6-5.3-16.5c0-4.7,0.8-8.7,2.4-12c1.6-3.3,3.9-5.9,7-7.7
				s6.8-2.7,11.3-2.7c6.4,0,11.3,1.9,14.7,5.8s5.1,9.5,5.1,17v2.4h-29.2c0.2,3.6,1.2,6.5,2.8,8.5c1.6,2.1,3.9,3.1,6.7,3.1
				c2.2,0,4-0.7,5.4-2c1.4-1.3,2.3-2.9,2.7-4.6h11c-0.4,2.6-1.4,5.1-2.9,7.3s-3.5,4-6.2,5.4S210.8,78.7,206.8,78.7z M197.3,51.6
				h17.9c-0.2-3.2-1-5.8-2.4-7.5c-1.4-1.8-3.5-2.7-6.1-2.7s-4.7,0.8-6.3,2.5C198.6,45.6,197.6,48.2,197.3,51.6z"/>
			<path class="st1" d="M244.7,78.5c-3.9,0-7.1-1-9.6-2.9s-4.4-4.6-5.6-8c-1.2-3.4-1.9-7.2-1.9-11.5c0-4.4,0.6-8.3,1.9-11.6
				c1.3-3.3,3.2-5.9,5.7-7.8s5.7-2.8,9.5-2.8c2.8,0,5.1,0.5,6.9,1.5c1.8,1,3.2,2.4,4.3,4.1h1.7v-19h11.6v57.2h-10.7v-5.6h-1.7
				c-1,1.8-2.5,3.3-4.4,4.6C250.4,77.9,247.9,78.5,244.7,78.5z M248,70.3c2.9,0,5.2-1.3,7-3.8c1.7-2.5,2.6-6,2.6-10.3
				c0-4.4-0.9-7.8-2.6-10.4c-1.7-2.5-4.1-3.8-7-3.8c-2.6,0-4.7,1.2-6.2,3.5c-1.5,2.4-2.3,5.9-2.3,10.6s0.8,8.3,2.3,10.6
				C243.3,69.2,245.4,70.3,248,70.3z"/>
			<path class="st1" d="M294.2,78.7c-6.8,0-11.9-2-15.5-6.1c-3.5-4-5.3-9.6-5.3-16.5c0-4.7,0.8-8.7,2.4-12s3.9-5.9,7-7.7
				s6.8-2.7,11.3-2.7c6.4,0,11.3,1.9,14.7,5.8c3.4,3.9,5.1,9.5,5.1,17v2.4h-29.2c0.2,3.6,1.2,6.5,2.8,8.5c1.6,2.1,3.9,3.1,6.7,3.1
				c2.2,0,4-0.7,5.4-2c1.4-1.3,2.3-2.9,2.7-4.6h11c-0.4,2.6-1.4,5.1-2.9,7.3s-3.5,4-6.2,5.4C301.6,78,298.2,78.7,294.2,78.7z
				 M284.7,51.6h17.9c-0.2-3.2-1-5.8-2.4-7.5c-1.4-1.8-3.5-2.7-6.1-2.7s-4.7,0.8-6.3,2.5C286.1,45.6,285.1,48.2,284.7,51.6z"/>
			<path class="st1" d="M317.7,77.6V34.8h10.6v7.9h1.7c0.3-1.4,0.8-2.8,1.6-4c0.8-1.3,2-2.3,3.6-3.1c1.6-0.8,3.8-1.2,6.5-1.2h2.3
				v10.4h-3.1c-4,0-7,1-8.8,3.1c-1.8,2-2.8,5.1-2.8,9.2v20.6L317.7,77.6L317.7,77.6z"/>
		</g>
	</g>
	<g>
		<path class="st2" d="M497.3,50.1c-2.1-2.4-5.5-3.9-10-4.3v-0.5c4.2-0.2,7.2-1.2,9.1-3.2c1.9-1.9,2.9-4.6,2.9-8.1v-0.6
			c0-4.7-1.6-8.2-4.9-10.5s-8.6-3.5-16-3.5h-12.1H462h-11.7v59.1h12h3.9h12.9c7.4,0,12.8-1.4,16.1-4.3c3.4-2.8,5.1-7.1,5.1-12.9
			v-1.1C500.4,55.9,499.4,52.5,497.3,50.1z M476.6,31.9c2.3,0,3.9,0.4,4.8,1.2c0.9,0.8,1.4,2.1,1.4,3.8v0.3c0,1.7-0.5,3-1.4,3.8
			c-0.9,0.9-2.6,1.3-4.8,1.3h-10.2V31.9H476.6z M483.6,60.1c0,1.8-0.5,3.1-1.5,4c-1,0.8-2.7,1.3-5.1,1.3h-10.7v-11H477
			c2.4,0,4.1,0.4,5.1,1.3c1,0.8,1.5,2.2,1.5,4V60.1z"/>
		<polygon class="st2" points="365.7,19.3 348.9,19.3 348.9,78.4 358.5,78.4 365.7,78.4 389.4,78.4 389.4,64.3 365.7,64.3 		"/>
		<path class="st2" d="M406.5,19.3L390,78.4h16.9l3.1-12.8h17.8l3,12.8h16.9l-16.3-59.1H406.5z M413,52.8l5.4-22.6h1.1l5.3,22.6H413
			z"/>
	</g>
</g>
<g>
	<path class="st2" d="M78.4,89.4L49.3,36.1c-0.4-0.7-0.6-1.6-0.6-2.4V3.9C48.7,2,46.2,0,44.3,0h-9.7c-1.9,0-4.4,2-4.4,3.9v29.8
		c0,0.9-0.2,1.7-0.6,2.4L0.5,89.4c-1.8,3.4,1.1,9,5,9h67.9C77.3,98.4,80.3,92.8,78.4,89.4z M71.2,95.5H7.7c-3.2,0-5.3-3.5-3.8-6.3
		l28.4-52.4c0.3-0.6,0.5-1.3,0.5-2V5.3c0-1.6,1.3-2.9,2.9-2.9h7.4c1.6,0,2.9,1.3,2.9,2.9v29.4c0,0.7,0.2,1.4,0.5,2L75,89.1
		C76.5,92,74.4,95.5,71.2,95.5z"/>
	<path class="st2" d="M64.2,75.5l-2.2-4L57.4,72c-0.9-2-2.9-3.4-5.3-3.4c-2.7,0-5,1.8-5.6,4.3l-6.7,0.5c-0.4-5.1-4.7-9-9.9-9
		c-5.5,0-9.9,4.4-9.9,9.9c0,0.2,0,0.5,0,0.7l-5.2,0.5L8.1,86.7c-1.8,3.3-1.4,5.9,3.6,5.9h55.8c5.5,0,5.4-2.5,3.6-5.9L64.2,75.5z"/>
	<circle class="st2" cx="37.2" cy="60.6" r="3.8"/>
	<ellipse class="st2" cx="38.8" cy="48.9" rx="1.9" ry="1.9"/>
</g>
</svg>
