<?xml version="1.0" encoding="utf-8"?>
<!-- Generator: Adobe Illustrator 25.2.1, SVG Export Plug-In . SVG Version: 6.00 Build 0)  -->
<svg version="1.1" id="Capa_1" xmlns="http://www.w3.org/2000/svg" xmlns:xlink="http://www.w3.org/1999/xlink" x="0px" y="0px"
	 viewBox="0 0 700.5 410" style="enable-background:new 0 0 700.5 410;" xml:space="preserve">
<style type="text/css">
	.st0{fill:#FFFFFF;}
	.st1{fill:#00D80A;}
</style>
<g>
	<g>
		<g>
			<g>
				<path class="st0" d="M41.4,352.6c-7.5,0-13.9-1-19.1-3c-5.2-2-9.4-4.7-12.5-8c-3.2-3.3-5.5-6.9-7.1-10.9
					c-1.5-3.9-2.4-7.8-2.7-11.6h19.4c0.2,3,1.1,5.8,2.7,8.6c1.7,2.7,4.1,5,7.5,6.7c3.3,1.7,7.5,2.6,12.4,2.6c5.4,0,9.4-1.1,12-3.3
					c2.6-2.2,3.9-5.1,3.9-8.6c0-3.4-1.1-6.2-3.4-8.3c-2.3-2.2-5.3-3.9-9-5.1l-14-4.7c-4.5-1.5-8.8-3.3-12.9-5.5
					c-4.1-2.2-7.5-5.1-10.1-8.7c-2.7-3.6-4-8.2-4-13.9c0-5.8,1.5-10.7,4.4-14.7c2.9-4,7-7,12.2-9.1c5.2-2.1,11.1-3.1,17.8-3.1
					c8.6,0,15.4,1.5,20.4,4.3c5,2.9,8.6,6.6,10.9,11c2.3,4.4,3.7,9,4.2,13.9H54.9c-0.2-2.3-0.8-4.5-1.9-6.6
					c-1.1-2.1-2.9-3.8-5.3-5.2c-2.4-1.3-5.6-2-9.7-2c-4.6,0-7.9,1-10.1,2.9c-2.2,1.9-3.3,4.3-3.3,7.2c0,3.1,1.1,5.7,3.4,7.6
					c2.3,1.9,5.3,3.5,9.1,4.8l14,4.7c4.6,1.5,8.9,3.4,12.9,5.6c4.1,2.2,7.4,5.2,10,8.9c2.6,3.7,3.9,8.5,3.9,14.5
					c0,9-3.2,16.1-9.6,21.3C62,350,53,352.6,41.4,352.6z"/>
				<path class="st0" d="M117.6,352.6c-11.8,0-20.7-3.5-26.9-10.6c-6.2-7-9.3-16.6-9.3-28.7c0-8.1,1.4-15.1,4.2-20.9
					c2.8-5.8,6.8-10.3,12.2-13.4c5.3-3.1,11.9-4.7,19.6-4.7c11.1,0,19.6,3.4,25.5,10.1c5.9,6.7,8.9,16.6,8.9,29.6v4.2h-50.7
					c0.4,6.3,2,11.2,4.9,14.8c2.9,3.6,6.7,5.4,11.6,5.4c3.9,0,7-1.2,9.4-3.5c2.4-2.3,3.9-5,4.7-8.1h19.1c-0.7,4.6-2.4,8.8-5,12.7
					c-2.6,3.9-6.2,7-10.8,9.4C130.4,351.4,124.6,352.6,117.6,352.6z M101.1,305.5h31.1c-0.3-5.6-1.7-10-4.2-13.1
					c-2.5-3.1-6-4.7-10.7-4.7c-4.6,0-8.2,1.5-11,4.4C103.5,295.1,101.8,299.5,101.1,305.5z"/>
				<path class="st0" d="M189.9,352.6c-11.8,0-20.7-3.5-26.9-10.6c-6.2-7-9.3-16.6-9.3-28.7c0-8.1,1.4-15.1,4.2-20.9
					c2.8-5.8,6.8-10.3,12.2-13.4c5.3-3.1,11.9-4.7,19.6-4.7c11.1,0,19.6,3.4,25.5,10.1c5.9,6.7,8.9,16.6,8.9,29.6v4.2h-50.7
					c0.4,6.3,2,11.2,4.9,14.8s6.7,5.4,11.6,5.4c3.9,0,7-1.2,9.4-3.5c2.4-2.3,3.9-5,4.7-8.1h19.1c-0.7,4.6-2.4,8.8-5,12.7
					c-2.6,3.9-6.2,7-10.8,9.4C202.7,351.4,196.9,352.6,189.9,352.6z M173.4,305.5h31.1c-0.3-5.6-1.7-10-4.2-13.1
					c-2.5-3.1-6-4.7-10.7-4.7c-4.6,0-8.2,1.5-11,4.4C175.8,295.1,174.1,299.5,173.4,305.5z"/>
				<path class="st0" d="M255.9,352.2c-6.8,0-12.4-1.7-16.8-5c-4.4-3.4-7.7-8-9.8-13.9c-2.2-5.9-3.2-12.5-3.2-20
					c0-7.7,1.1-14.5,3.3-20.2c2.2-5.8,5.5-10.3,9.9-13.5c4.4-3.2,10-4.8,16.6-4.8c4.9,0,8.9,0.9,12,2.6c3.1,1.7,5.6,4.1,7.4,7.1h3
					v-33h20.1v99.4h-18.6V341h-3c-1.7,3.1-4.3,5.8-7.6,8C265.9,351.1,261.5,352.2,255.9,352.2z M261.6,338c5.1,0,9.1-2.2,12.1-6.6
					c3-4.4,4.5-10.4,4.5-18c0-7.6-1.5-13.6-4.5-18c-3-4.4-7.1-6.6-12.1-6.6c-4.6,0-8.1,2-10.7,6.1c-2.6,4.1-3.9,10.2-3.9,18.4
					c0,8.2,1.3,14.3,3.9,18.4C253.5,336,257.1,338,261.6,338z"/>
				<path class="st0" d="M342,352.6c-11.8,0-20.7-3.5-26.9-10.6c-6.2-7-9.3-16.6-9.3-28.7c0-8.1,1.4-15.1,4.2-20.9
					c2.8-5.8,6.8-10.3,12.2-13.4c5.3-3.1,11.9-4.7,19.6-4.7c11.1,0,19.6,3.4,25.5,10.1c5.9,6.7,8.9,16.6,8.9,29.6v4.2h-50.7
					c0.4,6.3,2,11.2,4.9,14.8s6.7,5.4,11.6,5.4c3.9,0,7-1.2,9.4-3.5c2.4-2.3,3.9-5,4.7-8.1h19.1c-0.7,4.6-2.4,8.8-5,12.7
					c-2.6,3.9-6.2,7-10.8,9.4C354.7,351.4,349,352.6,342,352.6z M325.5,305.5h31.1c-0.3-5.6-1.7-10-4.2-13.1
					c-2.5-3.1-6-4.7-10.7-4.7c-4.6,0-8.2,1.5-11,4.4C327.9,295.1,326.1,299.5,325.5,305.5z"/>
				<path class="st0" d="M382.9,350.7v-74.5h18.4v13.7h3c0.5-2.5,1.4-4.8,2.8-7c1.4-2.2,3.5-4,6.3-5.3c2.8-1.4,6.6-2,11.3-2h4v18.1
					h-5.5c-7,0-12.2,1.8-15.3,5.3c-3.2,3.6-4.8,8.9-4.8,16v35.8H382.9z"/>
			</g>
		</g>
		<g>
			<path class="st1" d="M695,302.9c-3.7-4.2-9.5-6.7-17.4-7.6v-0.9c7.2-0.3,12.5-2.2,15.9-5.5c3.4-3.4,5-8.1,5-14.1v-1.1
				c0-8.2-2.8-14.3-8.5-18.3c-5.7-4.1-14.9-6.1-27.8-6.1h-21h-7.4h-20.3V352h20.9h6.8h22.4c12.8,0,22.2-2.5,28.1-7.4
				c5.9-4.9,8.8-12.4,8.8-22.4v-1.8C700.5,312.9,698.7,307.1,695,302.9z M659,271.3c4,0,6.8,0.7,8.4,2.1c1.6,1.4,2.5,3.6,2.5,6.6
				v0.6c0,2.9-0.8,5.2-2.5,6.7c-1.6,1.5-4.4,2.3-8.4,2.3h-17.8v-18.2H659z M671.3,320.3c0,3.1-0.9,5.4-2.6,6.9
				c-1.7,1.5-4.7,2.2-8.8,2.2h-18.7v-19.1h18.7c4.1,0,7.1,0.7,8.8,2.2c1.7,1.5,2.6,3.8,2.6,6.9V320.3z"/>
			<polygon class="st1" points="466.3,249.2 437.1,249.2 437.1,352 453.8,352 466.3,352 507.5,352 507.5,327.6 466.3,327.6 			"/>
			<path class="st1" d="M537.1,249.2L508.6,352h29.4l5.3-22.3h30.9l5.2,22.3h29.4l-28.2-102.8H537.1z M548.5,307.5l9.4-39.3h1.8
				l9.2,39.3H548.5z"/>
		</g>
	</g>
	<g>
		<g>
			<path class="st0" d="M83.8,403.8c-1.6,0-3.1-0.2-4.3-0.7c-1.2-0.4-2.3-1-3.2-1.8c-0.9-0.8-1.5-1.7-2-2.7c-0.5-1-0.7-2.2-0.8-3.4
				H77c0.1,1,0.4,1.9,0.9,2.8c0.5,0.9,1.3,1.6,2.3,2.2c1,0.6,2.3,0.8,3.8,0.8c1.6,0,2.9-0.3,3.9-1c0.9-0.7,1.4-1.7,1.4-2.9
				c0-1.2-0.4-2.1-1.3-2.8c-0.9-0.6-2-1.2-3.4-1.6l-2.4-0.8c-1.2-0.4-2.4-0.9-3.5-1.4c-1.1-0.5-2-1.2-2.8-2.1
				c-0.7-0.9-1.1-2-1.1-3.4c0-1.4,0.3-2.5,1-3.5c0.7-1,1.7-1.7,2.9-2.2c1.2-0.5,2.7-0.8,4.3-0.8c2,0,3.6,0.3,4.9,1
				c1.3,0.7,2.2,1.6,2.9,2.7c0.6,1.1,1,2.3,1.1,3.7h-3.5c-0.1-0.8-0.3-1.5-0.7-2.2c-0.4-0.7-1-1.3-1.7-1.7c-0.8-0.4-1.8-0.7-3.1-0.7
				c-1.4,0-2.5,0.3-3.3,0.9c-0.8,0.6-1.3,1.4-1.3,2.5c0,1.2,0.5,2.1,1.4,2.7c1,0.6,2.1,1.1,3.5,1.6l2.5,0.8c1.2,0.4,2.4,0.8,3.5,1.4
				c1.1,0.5,2,1.3,2.7,2.1c0.7,0.9,1,2.1,1,3.6c0,2.3-0.8,4-2.4,5.2C88.6,403.2,86.5,403.8,83.8,403.8z"/>
			<path class="st0" d="M110.3,403.8c-2.9,0-5-0.9-6.5-2.7c-1.5-1.8-2.2-4.2-2.2-7.1c0-2,0.3-3.7,1-5.1c0.7-1.5,1.6-2.6,2.9-3.5
				c1.3-0.8,2.9-1.3,4.8-1.3c2.7,0,4.7,0.8,6.1,2.5c1.4,1.7,2.1,4.1,2.1,7.3v1H105c0.1,1.8,0.6,3.3,1.5,4.5c0.9,1.2,2.2,1.8,3.9,1.8
				c1.2,0,2.2-0.3,3-1c0.8-0.7,1.3-1.6,1.6-2.8h3.3c-0.3,1.3-0.7,2.4-1.4,3.4c-0.6,1-1.5,1.7-2.6,2.3
				C113.2,403.5,111.9,403.8,110.3,403.8z M105,392.4h10c-0.1-1.8-0.5-3.2-1.4-4.2c-0.8-1-2-1.4-3.4-1.4c-1.5,0-2.7,0.5-3.6,1.5
				C105.7,389.2,105.2,390.6,105,392.4z"/>
			<path class="st0" d="M128.6,403.3v-18.8h3.1v2.8h0.8c0.3-1.1,0.9-1.9,1.7-2.5c0.9-0.6,1.9-0.9,3.3-0.9c1.4,0,2.6,0.3,3.4,0.9
				c0.9,0.6,1.5,1.4,1.9,2.4h0.8c0.4-1.1,1-1.9,1.9-2.5c0.9-0.6,2-0.9,3.4-0.9c2.1,0,3.7,0.7,4.7,2c1,1.3,1.4,3.1,1.4,5.2v12h-3.5
				V392c0-1.6-0.3-2.9-0.8-3.7c-0.5-0.9-1.4-1.3-2.6-1.3c-1.5,0-2.6,0.6-3.4,1.8s-1.2,2.7-1.2,4.5v10.1h-3.5V392
				c0-1.6-0.3-2.9-0.8-3.7c-0.5-0.9-1.4-1.3-2.6-1.3c-1.5,0-2.6,0.6-3.4,1.8s-1.2,2.7-1.2,4.5v10.1H128.6z"/>
			<path class="st0" d="M175.6,403.8c-1.5,0-2.7-0.3-3.6-0.9c-0.9-0.6-1.5-1.3-1.9-2h-0.8v2.4h-3.1v-25h3.5v8.5h0.8
				c0.4-0.8,1.1-1.5,1.9-2c0.8-0.5,1.9-0.8,3.2-0.8c1.6,0,3,0.4,4.2,1.2c1.2,0.8,2,2,2.7,3.4c0.6,1.5,0.9,3.2,0.9,5.2
				c0,2-0.3,3.7-0.9,5.2c-0.6,1.5-1.5,2.6-2.7,3.4C178.6,403.4,177.2,403.8,175.6,403.8z M174.9,401c1.6,0,2.8-0.6,3.6-1.8
				c0.8-1.2,1.3-3,1.3-5.2c0-2.2-0.4-4-1.3-5.2c-0.8-1.2-2.1-1.8-3.6-1.8c-1.6,0-2.9,0.6-3.9,1.9c-1,1.3-1.4,3-1.4,5.1
				c0,2.1,0.5,3.8,1.4,5.1C172,400.3,173.3,401,174.9,401z"/>
			<path class="st0" d="M193.6,403.3v-18.8h3.1v3.2h0.8c0.1-0.5,0.4-1,0.7-1.6c0.3-0.5,0.8-1,1.6-1.3c0.7-0.3,1.7-0.5,3-0.5h0.6v3.2
				h-1c-1.9,0-3.3,0.5-4.1,1.5c-0.8,1-1.2,2.5-1.2,4.6v9.8H193.6z"/>
			<path class="st0" d="M218.9,403.8c-1.7,0-3.1-0.4-4.3-1.2c-1.2-0.8-2.1-2-2.7-3.4c-0.6-1.5-0.9-3.2-0.9-5.2c0-2,0.3-3.7,0.9-5.2
				c0.6-1.5,1.5-2.6,2.7-3.4c1.2-0.8,2.6-1.2,4.3-1.2c1.5,0,2.6,0.3,3.5,0.9c0.9,0.6,1.5,1.3,1.8,2h0.8v-2.4h3.1v18.8h-3.1v-2.4
				h-0.8c-0.3,0.8-1,1.4-1.9,2C221.6,403.5,220.4,403.8,218.9,403.8z M219.5,401c1.6,0,2.9-0.6,3.9-1.9c1-1.3,1.4-3,1.4-5.1
				c0-2.1-0.5-3.8-1.4-5.1c-1-1.3-2.2-1.9-3.9-1.9c-1.6,0-2.8,0.6-3.6,1.8c-0.8,1.2-1.3,3-1.3,5.2c0,2.2,0.4,4,1.3,5.2
				C216.7,400.3,217.9,401,219.5,401z"/>
			<path class="st0" d="M239.7,403.3v-18.8h3.1v2.8h0.8c0.3-1.1,0.9-1.9,1.7-2.5c0.9-0.6,1.9-0.9,3.3-0.9c1.4,0,2.6,0.3,3.4,0.9
				c0.9,0.6,1.5,1.4,1.9,2.4h0.8c0.4-1.1,1-1.9,1.9-2.5c0.9-0.6,2-0.9,3.4-0.9c2.1,0,3.7,0.7,4.7,2c1,1.3,1.4,3.1,1.4,5.2v12h-3.5
				V392c0-1.6-0.3-2.9-0.8-3.7c-0.5-0.9-1.4-1.3-2.6-1.3c-1.5,0-2.6,0.6-3.4,1.8c-0.8,1.2-1.2,2.7-1.2,4.5v10.1h-3.5V392
				c0-1.6-0.3-2.9-0.8-3.7c-0.5-0.9-1.4-1.3-2.6-1.3c-1.5,0-2.6,0.6-3.4,1.8s-1.2,2.7-1.2,4.5v10.1H239.7z"/>
			<path class="st0" d="M284.8,403.8c-3,0-5.2-0.9-6.6-2.7c-1.4-1.8-2.2-4.2-2.2-7.2c0-3,0.7-5.4,2.2-7.2c1.4-1.8,3.6-2.7,6.6-2.7
				c3,0,5.2,0.9,6.6,2.7c1.4,1.8,2.2,4.2,2.2,7.2c0,3-0.7,5.4-2.2,7.2C289.9,402.9,287.7,403.8,284.8,403.8z M284.8,401
				c1.8,0,3.1-0.6,3.9-1.9c0.8-1.3,1.3-3,1.3-5.2s-0.4-3.9-1.3-5.2c-0.8-1.3-2.1-1.9-3.9-1.9c-1.8,0-3.1,0.6-3.9,1.9
				c-0.8,1.3-1.3,3-1.3,5.2s0.4,3.9,1.3,5.2C281.7,400.4,283,401,284.8,401z"/>
			<path class="st0" d="M310,403.8c-1.8,0-3.3-0.3-4.5-0.9c-1.2-0.6-2-1.4-2.6-2.4c-0.6-1-0.9-2-1-3.1h3.4c0.1,0.6,0.3,1.2,0.6,1.8
				c0.3,0.6,0.9,1.1,1.5,1.5c0.7,0.4,1.5,0.6,2.6,0.6c1.1,0,2-0.2,2.7-0.7c0.6-0.5,0.9-1.1,0.9-1.9c0-0.7-0.2-1.2-0.7-1.7
				c-0.5-0.5-1.2-0.9-2.3-1.2l-2.3-0.8c-1-0.4-2-0.8-2.8-1.2c-0.8-0.4-1.5-1-2-1.7c-0.5-0.7-0.7-1.5-0.7-2.6c0-1.6,0.6-2.9,1.8-3.8
				c1.2-1,2.8-1.4,4.9-1.4c1.5,0,2.7,0.3,3.7,0.8c1,0.5,1.7,1.2,2.3,2c0.5,0.9,0.8,1.8,0.9,2.9h-3.3c-0.1-0.8-0.4-1.5-1-2.1
				c-0.6-0.6-1.5-1-2.8-1c-1,0-1.8,0.2-2.3,0.6c-0.5,0.4-0.8,1-0.8,1.7c0,0.7,0.3,1.3,0.8,1.8c0.5,0.5,1.3,0.9,2.3,1.3l2.3,0.8
				c1,0.4,2,0.8,2.8,1.2c0.8,0.4,1.5,1,1.9,1.7c0.5,0.7,0.7,1.5,0.7,2.6c0,1.6-0.6,2.9-1.8,3.9C314.1,403.3,312.3,403.8,310,403.8z"
				/>
			<path class="st0" d="M348,410c-1.4,0-2.6-0.2-3.5-0.5c-1-0.3-1.7-0.8-2.3-1.3c-0.6-0.5-1.1-1.1-1.4-1.7c-0.3-0.6-0.5-1.2-0.6-1.8
				h3.5c0.1,0.7,0.5,1.3,1.2,1.9c0.7,0.6,1.8,0.8,3.2,0.8c1.6,0,2.8-0.4,3.6-1.3c0.9-0.8,1.3-2.2,1.3-4V400h-0.8
				c-0.3,0.8-0.9,1.5-1.8,2.1c-0.8,0.6-2,0.8-3.4,0.8c-2.4,0-4.3-0.8-5.7-2.5c-1.4-1.7-2.1-4-2.1-6.9c0-1.9,0.3-3.6,0.9-5
				c0.6-1.4,1.5-2.5,2.7-3.2c1.2-0.8,2.5-1.1,4.1-1.1c1.5,0,2.6,0.3,3.5,0.9c0.8,0.6,1.4,1.3,1.8,2h0.8v-2.4h3.1v17.7
				c0,2.5-0.7,4.4-2.1,5.7C352.7,409.3,350.7,410,348,410z M347.6,400.1c1.7,0,3-0.6,3.9-1.9s1.4-2.8,1.4-4.7c0-2-0.5-3.6-1.4-4.8
				c-0.9-1.2-2.2-1.8-3.8-1.8c-1.5,0-2.7,0.6-3.5,1.7c-0.8,1.1-1.2,2.8-1.2,4.9c0,2.1,0.4,3.7,1.2,4.9
				C344.9,399.5,346.1,400.1,347.6,400.1z"/>
			<path class="st0" d="M367.7,403.3v-18.8h3.1v3.2h0.8c0.1-0.5,0.4-1,0.7-1.6c0.3-0.5,0.8-1,1.6-1.3c0.7-0.3,1.7-0.5,3-0.5h0.7v3.2
				h-1c-1.9,0-3.3,0.5-4.1,1.5c-0.8,1-1.2,2.5-1.2,4.6v9.8H367.7z"/>
			<path class="st0" d="M393,403.8c-1.7,0-3.1-0.4-4.3-1.2c-1.2-0.8-2.1-2-2.7-3.4c-0.6-1.5-0.9-3.2-0.9-5.2c0-2,0.3-3.7,0.9-5.2
				c0.6-1.5,1.5-2.6,2.7-3.4c1.2-0.8,2.6-1.2,4.3-1.2c1.5,0,2.6,0.3,3.5,0.9c0.9,0.6,1.5,1.3,1.8,2h0.8v-2.4h3.1v18.8h-3.1v-2.4
				h-0.8c-0.3,0.8-1,1.4-1.9,2C395.7,403.5,394.5,403.8,393,403.8z M393.6,401c1.6,0,2.9-0.6,3.9-1.9c1-1.3,1.4-3,1.4-5.1
				c0-2.1-0.5-3.8-1.4-5.1s-2.2-1.9-3.9-1.9c-1.6,0-2.8,0.6-3.6,1.8c-0.8,1.2-1.3,3-1.3,5.2c0,2.2,0.4,4,1.3,5.2
				C390.8,400.3,392.1,401,393.6,401z"/>
			<path class="st0" d="M413.8,403.3v-18.8h3.1v2.8h0.8c0.4-1,1-1.9,1.9-2.4c0.9-0.6,2.1-0.9,3.5-0.9c2.3,0,3.9,0.7,5,2
				c1,1.3,1.5,3.1,1.5,5.2v12h-3.5V392c0-1.6-0.3-2.9-0.9-3.7c-0.6-0.9-1.5-1.3-2.8-1.3c-1.6,0-2.8,0.6-3.7,1.8
				c-0.9,1.2-1.3,2.7-1.3,4.5v10.1H413.8z"/>
			<path class="st0" d="M447.2,403.8c-1.7,0-3.1-0.4-4.3-1.2c-1.2-0.8-2.1-2-2.7-3.4c-0.6-1.5-0.9-3.2-0.9-5.2c0-2,0.3-3.7,0.9-5.2
				c0.6-1.5,1.5-2.6,2.7-3.4c1.2-0.8,2.6-1.2,4.2-1.2c1.3,0,2.4,0.3,3.2,0.8c0.8,0.5,1.5,1.2,1.9,2h0.8v-8.5h3.5v25h-3.1v-2.4h-0.8
				c-0.3,0.8-1,1.4-1.9,2C449.9,403.5,448.7,403.8,447.2,403.8z M447.8,401c1.6,0,2.9-0.6,3.9-1.9c1-1.3,1.4-3,1.4-5.1
				c0-2.1-0.5-3.8-1.4-5.1c-1-1.3-2.2-1.9-3.9-1.9c-1.6,0-2.8,0.6-3.6,1.8c-0.8,1.2-1.3,3-1.3,5.2c0,2.2,0.4,4,1.3,5.2
				C445,400.3,446.2,401,447.8,401z"/>
			<path class="st0" d="M475.4,403.8c-2.9,0-5-0.9-6.5-2.7c-1.5-1.8-2.2-4.2-2.2-7.1c0-2,0.3-3.7,1-5.1c0.7-1.5,1.6-2.6,2.9-3.5
				c1.3-0.8,2.9-1.3,4.8-1.3c2.7,0,4.7,0.8,6.1,2.5c1.4,1.7,2.1,4.1,2.1,7.3v1h-13.5c0.1,1.8,0.6,3.3,1.5,4.5
				c0.9,1.2,2.2,1.8,3.9,1.8c1.2,0,2.2-0.3,3-1c0.8-0.7,1.3-1.6,1.6-2.8h3.3c-0.3,1.3-0.7,2.4-1.4,3.4c-0.6,1-1.5,1.7-2.6,2.3
				C478.3,403.5,477,403.8,475.4,403.8z M470.1,392.4h10c-0.1-1.8-0.5-3.2-1.4-4.2c-0.8-1-2-1.4-3.4-1.4c-1.5,0-2.7,0.5-3.6,1.5
				C470.9,389.2,470.3,390.6,470.1,392.4z"/>
			<path class="st0" d="M500.1,403.8c-1.8,0-3.3-0.3-4.5-0.9c-1.2-0.6-2-1.4-2.6-2.4c-0.6-1-0.9-2-1-3.1h3.4
				c0.1,0.6,0.3,1.2,0.6,1.8c0.3,0.6,0.9,1.1,1.5,1.5c0.7,0.4,1.5,0.6,2.6,0.6c1.1,0,2-0.2,2.7-0.7c0.6-0.5,0.9-1.1,0.9-1.9
				c0-0.7-0.2-1.2-0.7-1.7c-0.5-0.5-1.2-0.9-2.3-1.2l-2.3-0.8c-1-0.4-2-0.8-2.8-1.2c-0.8-0.4-1.5-1-2-1.7c-0.5-0.7-0.7-1.5-0.7-2.6
				c0-1.6,0.6-2.9,1.8-3.8c1.2-1,2.8-1.4,4.9-1.4c1.5,0,2.7,0.3,3.7,0.8c1,0.5,1.7,1.2,2.3,2c0.5,0.9,0.8,1.8,0.9,2.9h-3.3
				c-0.1-0.8-0.4-1.5-1-2.1c-0.6-0.6-1.5-1-2.8-1c-1,0-1.8,0.2-2.3,0.6c-0.5,0.4-0.8,1-0.8,1.7c0,0.7,0.3,1.3,0.8,1.8
				c0.5,0.5,1.3,0.9,2.3,1.3l2.3,0.8c1,0.4,2,0.8,2.8,1.2c0.8,0.4,1.5,1,1.9,1.7c0.5,0.7,0.7,1.5,0.7,2.6c0,1.6-0.6,2.9-1.8,3.9
				C504.1,403.3,502.3,403.8,500.1,403.8z"/>
			<path class="st0" d="M532.5,381.9c-0.7,0-1.2-0.2-1.6-0.6c-0.4-0.4-0.6-0.9-0.6-1.5c0-0.6,0.2-1.1,0.6-1.5
				c0.4-0.4,0.9-0.6,1.6-0.6c0.7,0,1.2,0.2,1.6,0.6c0.4,0.4,0.6,0.9,0.6,1.5c0,0.6-0.2,1.1-0.6,1.5
				C533.7,381.7,533.2,381.9,532.5,381.9z M530.7,403.3v-18.8h3.5v18.8H530.7z"/>
			<path class="st0" d="M552.1,403.8c-1.7,0-3.1-0.4-4.3-1.2c-1.2-0.8-2.1-2-2.7-3.4c-0.6-1.5-0.9-3.2-0.9-5.2c0-2,0.3-3.7,0.9-5.2
				c0.6-1.5,1.5-2.6,2.7-3.4c1.2-0.8,2.6-1.2,4.2-1.2c1.3,0,2.4,0.3,3.2,0.8c0.8,0.5,1.5,1.2,1.9,2h0.8v-8.5h3.5v25h-3.1v-2.4h-0.8
				c-0.3,0.8-1,1.4-1.9,2C554.8,403.5,553.6,403.8,552.1,403.8z M552.7,401c1.6,0,2.9-0.6,3.9-1.9c1-1.3,1.4-3,1.4-5.1
				c0-2.1-0.5-3.8-1.4-5.1s-2.2-1.9-3.9-1.9c-1.6,0-2.8,0.6-3.6,1.8c-0.8,1.2-1.3,3-1.3,5.2c0,2.2,0.4,4,1.3,5.2
				C550,400.3,551.2,401,552.7,401z"/>
			<path class="st0" d="M580.4,403.8c-2.9,0-5-0.9-6.5-2.7c-1.5-1.8-2.2-4.2-2.2-7.1c0-2,0.3-3.7,1-5.1c0.7-1.5,1.6-2.6,2.9-3.5
				c1.3-0.8,2.9-1.3,4.8-1.3c2.7,0,4.7,0.8,6.1,2.5c1.4,1.7,2.1,4.1,2.1,7.3v1H575c0.1,1.8,0.6,3.3,1.5,4.5c0.9,1.2,2.2,1.8,3.9,1.8
				c1.2,0,2.2-0.3,3-1c0.8-0.7,1.3-1.6,1.6-2.8h3.3c-0.3,1.3-0.7,2.4-1.4,3.4c-0.6,1-1.5,1.7-2.6,2.3
				C583.2,403.5,581.9,403.8,580.4,403.8z M575.1,392.4h10c-0.1-1.8-0.5-3.2-1.4-4.2c-0.8-1-2-1.4-3.4-1.4c-1.5,0-2.7,0.5-3.6,1.5
				C575.8,389.2,575.3,390.6,575.1,392.4z"/>
			<path class="st0" d="M605.1,403.8c-1.7,0-3.1-0.4-4.3-1.2c-1.2-0.8-2.1-2-2.7-3.4c-0.6-1.5-0.9-3.2-0.9-5.2c0-2,0.3-3.7,0.9-5.2
				c0.6-1.5,1.5-2.6,2.7-3.4c1.2-0.8,2.6-1.2,4.3-1.2c1.5,0,2.6,0.3,3.5,0.9c0.9,0.6,1.5,1.3,1.8,2h0.8v-2.4h3.1v18.8h-3.1v-2.4
				h-0.8c-0.3,0.8-1,1.4-1.9,2C607.8,403.5,606.6,403.8,605.1,403.8z M605.8,401c1.6,0,2.9-0.6,3.9-1.9c1-1.3,1.4-3,1.4-5.1
				c0-2.1-0.5-3.8-1.4-5.1s-2.2-1.9-3.9-1.9c-1.6,0-2.8,0.6-3.6,1.8c-0.8,1.2-1.3,3-1.3,5.2c0,2.2,0.4,4,1.3,5.2
				C603,400.3,604.2,401,605.8,401z"/>
			<path class="st0" d="M632.3,403.8c-1.8,0-3.3-0.3-4.5-0.9c-1.2-0.6-2-1.4-2.6-2.4c-0.6-1-0.9-2-1-3.1h3.4
				c0.1,0.6,0.3,1.2,0.6,1.8c0.3,0.6,0.9,1.1,1.5,1.5c0.7,0.4,1.5,0.6,2.6,0.6c1.1,0,2-0.2,2.7-0.7c0.6-0.5,0.9-1.1,0.9-1.9
				c0-0.7-0.2-1.2-0.7-1.7c-0.5-0.5-1.2-0.9-2.3-1.2l-2.3-0.8c-1-0.4-2-0.8-2.8-1.2c-0.8-0.4-1.5-1-2-1.7c-0.5-0.7-0.7-1.5-0.7-2.6
				c0-1.6,0.6-2.9,1.8-3.8c1.2-1,2.8-1.4,4.9-1.4c1.5,0,2.7,0.3,3.7,0.8c1,0.5,1.7,1.2,2.3,2c0.5,0.9,0.8,1.8,0.9,2.9h-3.3
				c-0.1-0.8-0.4-1.5-1-2.1c-0.6-0.6-1.5-1-2.8-1c-1,0-1.8,0.2-2.3,0.6c-0.5,0.4-0.8,1-0.8,1.7c0,0.7,0.3,1.3,0.8,1.8
				c0.5,0.5,1.3,0.9,2.3,1.3l2.3,0.8c1,0.4,2,0.8,2.8,1.2c0.8,0.4,1.5,1,1.9,1.7c0.5,0.7,0.7,1.5,0.7,2.6c0,1.6-0.6,2.9-1.8,3.9
				C636.3,403.3,634.6,403.8,632.3,403.8z"/>
		</g>
	</g>
	<g>
		<path class="st1" d="M428.9,179.1l-58-107.9c-0.8-1.5-1.2-3.2-1.2-4.9V7c0-3.8-3.1-7-7-7h-19.5c-3.8,0-7,3.1-7,7v59.4
			c0,1.7-0.4,3.4-1.2,4.9l-58,107.9c-3.7,6.9,1.3,15.3,9.1,15.3h133.6C427.6,194.4,432.6,186,428.9,179.1z M417.2,191.4H288.6
			c-6.6,0-10.8-7-7.7-12.8l57.6-106.2c0.7-1.3,1-2.7,1-4.1V8.8c0-3.2,2.6-5.9,5.9-5.9h15c3.2,0,5.9,2.6,5.9,5.9v59.5
			c0,1.4,0.4,2.9,1,4.1l57.6,106.2C428,184.4,423.8,191.4,417.2,191.4z"/>
		<path class="st1" d="M405.1,151l-4.4-8l-11.5,0.9c-1.8-4.1-5.9-7-10.7-7c-5.5,0-10,3.7-11.3,8.8l-13.7,1.1
			c-0.9-10.3-9.5-18.4-20-18.4c-11.1,0-20.1,9-20.1,20.1c0,0.5,0,1,0.1,1.5l-12.6,1l-13.6,24.6c-3.7,6.8-2.8,12.1,7.2,12.1h117.1
			c11.2,0,10.9-5,7.2-12.1L405.1,151z"/>
		<circle class="st1" cx="348.2" cy="120.8" r="7.6"/>
		
			<ellipse transform="matrix(0.3827 -0.9239 0.9239 0.3827 127.227 384.6498)" class="st1" cx="351.4" cy="97.1" rx="3.9" ry="3.9"/>
	</g>
</g>
</svg>
