<?xml version="1.0" encoding="utf-8"?>
<!-- Generator: Adobe Illustrator 25.2.1, SVG Export Plug-In . SVG Version: 6.00 Build 0)  -->
<svg version="1.1" id="Capa_1" xmlns="http://www.w3.org/2000/svg" xmlns:xlink="http://www.w3.org/1999/xlink" x="0px" y="0px"
	 viewBox="0 0 87.6 87.6" style="enable-background:new 0 0 87.6 87.6;" xml:space="preserve">
<style type="text/css">
	.st0{fill:#00D80A;}
</style>
<g>
	<g>
		<path class="st0" d="M87.6,43.8C87.6,19.6,68,0,43.8,0C19.6,0,0,19.6,0,43.8c0,21.9,16,40,37,43.3V56.5H25.8V43.8H37v-9.7
			c0-11,6.5-17,16.5-17c4.8,0,9.8,0.9,9.8,0.9v10.8h-5.5c-5.4,0-7.1,3.4-7.1,6.8v8.2h12.1l-1.9,12.7H50.6v30.6
			C71.6,83.8,87.6,65.7,87.6,43.8z"/>
		<path d="M60.9,56.5l1.9-12.7H50.6v-8.2c0-3.5,1.7-6.8,7.1-6.8h5.5V18c0,0-5-0.9-9.8-0.9c-10,0-16.5,6.1-16.5,17v9.7H25.8v12.7H37
			v30.6c2.2,0.3,4.5,0.5,6.8,0.5c2.3,0,4.6-0.2,6.8-0.5V56.5H60.9z"/>
	</g>
</g>
</svg>
