<?xml version="1.0" encoding="utf-8"?>
<!-- Generator: Adobe Illustrator 25.2.1, SVG Export Plug-In . SVG Version: 6.00 Build 0)  -->
<svg version="1.1" id="Capa_1" xmlns="http://www.w3.org/2000/svg" xmlns:xlink="http://www.w3.org/1999/xlink" x="0px" y="0px"
	 viewBox="0 0 87.6 87.6" style="enable-background:new 0 0 87.6 87.6;" xml:space="preserve">
<style type="text/css">
	.st0{fill:#00D80A;}
</style>
<g>
	<circle class="st0" cx="43.8" cy="43.8" r="43.8"/>
	<g>
		<g>
			<path d="M57.4,27.2c-1.7,0-3,1.3-3,3c0,1.7,1.3,3,3,3c1.7,0,3-1.3,3-3C60.4,28.6,59.1,27.2,57.4,27.2z"/>
			<path d="M44,31.1c-7,0-12.6,5.7-12.6,12.6c0,7,5.7,12.6,12.6,12.6c7,0,12.6-5.7,12.6-12.6C56.7,36.8,51,31.1,44,31.1z M44,51.8
				c-4.5,0-8.1-3.6-8.1-8.1s3.6-8.1,8.1-8.1c4.5,0,8.1,3.6,8.1,8.1S48.5,51.8,44,51.8z"/>
			<path d="M54.1,69.4H33.6c-8.5,0-15.4-6.9-15.4-15.4V33.5c0-8.5,6.9-15.4,15.4-15.4h20.5c8.5,0,15.4,6.9,15.4,15.4V54
				C69.5,62.5,62.6,69.4,54.1,69.4z M33.6,22.9c-5.8,0-10.6,4.8-10.6,10.6V54c0,5.8,4.8,10.6,10.6,10.6h20.5
				c5.8,0,10.6-4.8,10.6-10.6V33.5c0-5.8-4.8-10.6-10.6-10.6H33.6z"/>
		</g>
	</g>
</g>
</svg>
