<?xml version="1.0" encoding="utf-8"?>
<!-- Generator: Adobe Illustrator 25.2.1, SVG Export Plug-In . SVG Version: 6.00 Build 0)  -->
<svg version="1.1" id="Capa_1" xmlns="http://www.w3.org/2000/svg" xmlns:xlink="http://www.w3.org/1999/xlink" x="0px" y="0px"
	 viewBox="0 0 87.6 87.6" style="enable-background:new 0 0 87.6 87.6;" xml:space="preserve">
<style type="text/css">
	.st0{fill:#00D80A;}
</style>
<g>
	<circle class="st0" cx="43.8" cy="43.8" r="43.8"/>
	<path d="M66.5,38.8c-0.4,0-0.9,0.1-1.3,0.1c-4.9,0-9.5-2.5-12.2-6.6v22.5c0,9.2-7.5,16.7-16.7,16.7c-9.2,0-16.7-7.5-16.7-16.7
		c0-9.2,7.5-16.7,16.7-16.7l0,0c0.3,0,0.7,0,1,0.1v8.2c-0.3,0-0.7-0.1-1-0.1c-4.7,0-8.5,3.8-8.5,8.5s3.8,8.5,8.5,8.5
		c4.7,0,8.8-3.7,8.8-8.4l0.1-38.3h7.9c0.7,7,6.4,12.5,13.5,13.1L66.5,38.8"/>
</g>
</svg>
