<?xml version="1.0" encoding="utf-8"?>
<!-- Generator: Adobe Illustrator 25.2.1, SVG Export Plug-In . SVG Version: 6.00 Build 0)  -->
<svg version="1.1" id="Capa_1" xmlns="http://www.w3.org/2000/svg" xmlns:xlink="http://www.w3.org/1999/xlink" x="0px" y="0px"
	 viewBox="0 0 87.6 87.6" style="enable-background:new 0 0 87.6 87.6;" xml:space="preserve">
<style type="text/css">
	.st0{fill:#00D80A;}
	.st1{fill-rule:evenodd;clip-rule:evenodd;}
</style>
<g>
	
		<ellipse transform="matrix(0.9224 -0.3861 0.3861 0.9224 -13.5163 20.3102)" class="st0" cx="43.8" cy="43.8" rx="43.8" ry="43.8"/>
	<path d="M20.1,68.6L23.8,55c-2.1-3.7-3.2-7.9-3.2-12.2c0-13.9,11.3-25.2,25.2-25.2C59.7,17.6,71,28.9,71,42.8
		C71,56.7,59.7,68,45.8,68c-4.2,0-8.3-1.1-12-3L20.1,68.6z M34.5,59.8l0.9,0.5c3.2,1.9,6.8,2.9,10.4,2.9c11.3,0,20.4-9.2,20.4-20.4
		S57,22.4,45.8,22.4c-11.3,0-20.4,9.2-20.4,20.4c0,3.7,1,7.4,3,10.6l0.5,0.9l-2,7.6L34.5,59.8z"/>
	<path class="st1" d="M55.2,46.3c-1-0.6-2.4-1.3-3.6-0.8c-0.9,0.4-1.5,1.8-2.1,2.6c-0.3,0.4-0.7,0.4-1.2,0.3c-3.5-1.4-6.2-3.7-8.1-7
		c-0.3-0.5-0.3-0.9,0.1-1.4c0.6-0.7,1.3-1.5,1.5-2.4c0.2-0.9-0.3-2-0.7-2.8c-0.5-1.1-1-2.6-2.1-3.2c-1-0.6-2.3-0.2-3.1,0.5
		c-1.5,1.2-2.2,3.1-2.2,5c0,0.5,0.1,1.1,0.2,1.6c0.3,1.2,0.9,2.4,1.5,3.5c0.5,0.8,1,1.6,1.6,2.4c1.9,2.6,4.2,4.8,6.9,6.4
		c1.4,0.8,2.8,1.6,4.3,2.1c1.7,0.6,3.2,1.1,5,0.8c1.9-0.4,3.8-1.5,4.6-3.4c0.2-0.5,0.3-1.2,0.2-1.7C57.7,47.6,56.1,46.9,55.2,46.3z"
		/>
</g>
</svg>
